<svg width="512" height="512" viewBox="0 0 512 512" fill="none" xmlns="http://www.w3.org/2000/svg">
<rect width="512" height="512" fill="#030712"/>
<path fill-rule="evenodd" clip-rule="evenodd" d="M210.014 197.918C210.005 197.972 210 198.028 210 198.083V250.901C210 250.967 210.007 251.034 210.02 251.099C212.023 260.993 216.506 264.981 227.389 267.475C227.462 267.491 227.538 267.5 227.612 267.5H315C325 266.5 333.11 258.5 333.11 251.348V198.422C333.11 198.373 333.106 198.323 333.099 198.274C331.532 187.88 325.46 182.419 317.001 182.023C316.449 181.997 316 181.552 316 181V166.5C314 141 289.5 126 276 126H267C250.5 127 230 140 227 166.5V181.127C227 181.627 226.628 182.049 226.134 182.128C215.795 183.79 211.487 189.206 210.014 197.918ZM301.5 181C301.5 181.552 301.052 182 300.5 182H243C242.448 182 242 181.552 242 181V166.5C242 152.5 256 140.5 267 140.5H276C288 140.5 301.5 155 301.5 166V181Z" fill="url(#paint0_linear_1_4)"/>
<mask id="path-2-outside-1_1_4" maskUnits="userSpaceOnUse" x="34" y="282" width="455" height="73" fill="black">
<rect fill="white" x="34" y="282" width="455" height="73"/>
<path d="M43.224 324.352V352H35.16V284.8H59.16C62.616 284.8 65.624 285.312 68.184 286.336C70.744 287.296 72.856 288.608 74.52 290.272C76.248 291.936 77.528 293.888 78.36 296.128C79.256 298.304 79.704 300.608 79.704 303.04V305.92C79.704 308.352 79.256 310.688 78.36 312.928C77.528 315.168 76.248 317.152 74.52 318.88C72.792 320.544 70.648 321.888 68.088 322.912C65.528 323.872 62.552 324.352 59.16 324.352H43.224ZM43.224 316.864H58.2C67.16 316.864 71.64 313.024 71.64 305.344V303.616C71.64 300.224 70.52 297.504 68.28 295.456C66.104 293.344 62.744 292.288 58.2 292.288H43.224V316.864ZM139.061 328.768C139.061 332.736 138.389 336.256 137.045 339.328C135.765 342.336 134.037 344.896 131.861 347.008C129.685 349.056 127.125 350.624 124.181 351.712C121.301 352.8 118.293 353.344 115.157 353.344C111.957 353.344 108.917 352.8 106.037 351.712C103.157 350.624 100.629 349.056 98.4532 347.008C96.2773 344.896 94.5173 342.336 93.1733 339.328C91.8933 336.256 91.2533 332.736 91.2533 328.768V327.616C91.2533 323.712 91.8933 320.256 93.1733 317.248C94.5173 314.176 96.2773 311.584 98.4532 309.472C100.693 307.36 103.253 305.76 106.133 304.672C109.013 303.584 112.021 303.04 115.157 303.04C118.293 303.04 121.301 303.584 124.181 304.672C127.061 305.76 129.589 307.36 131.765 309.472C134.005 311.584 135.765 314.176 137.045 317.248C138.389 320.256 139.061 323.712 139.061 327.616V328.768ZM115.157 346.24C117.461 346.24 119.573 345.856 121.493 345.088C123.477 344.256 125.205 343.072 126.677 341.536C128.149 340 129.301 338.176 130.133 336.064C130.965 333.888 131.381 331.456 131.381 328.768V327.616C131.381 325.056 130.965 322.72 130.133 320.608C129.301 318.432 128.149 316.576 126.677 315.04C125.205 313.504 123.477 312.32 121.493 311.488C119.509 310.592 117.397 310.144 115.157 310.144C112.917 310.144 110.805 310.592 108.821 311.488C106.837 312.32 105.109 313.504 103.637 315.04C102.165 316.576 101.013 318.432 100.181 320.608C99.3493 322.72 98.9333 325.056 98.9333 327.616V328.768C98.9333 331.456 99.3493 333.888 100.181 336.064C101.013 338.176 102.165 340 103.637 341.536C105.109 343.072 106.805 344.256 108.725 345.088C110.709 345.856 112.853 346.24 115.157 346.24ZM167.507 319.744H197.458V352H189.971V343.936H188.819C187.731 346.752 185.811 349.024 183.059 350.752C180.307 352.48 177.107 353.344 173.459 353.344C166.227 353.344 160.531 351.008 156.371 346.336C152.275 341.664 150.227 334.848 150.227 325.888V310.912C150.227 302.208 152.307 295.456 156.467 290.656C160.627 285.856 166.419 283.456 173.843 283.456C177.683 283.456 181.075 284.096 184.019 285.376C186.963 286.592 189.427 288.32 191.411 290.56C193.395 292.736 194.899 295.328 195.923 298.336C196.947 301.28 197.458 304.448 197.458 307.84V308.992H189.395V307.84C189.395 305.664 189.075 303.552 188.435 301.504C187.859 299.456 186.931 297.664 185.651 296.128C184.435 294.528 182.835 293.28 180.851 292.384C178.931 291.424 176.595 290.944 173.843 290.944C168.659 290.944 164.755 292.832 162.131 296.608C159.571 300.384 158.291 305.344 158.291 311.488V325.312C158.291 331.904 159.571 336.992 162.131 340.576C164.755 344.096 168.723 345.856 174.035 345.856C178.835 345.856 182.579 344.32 185.267 341.248C188.019 338.176 189.395 333.888 189.395 328.384V327.232H167.507V319.744ZM256.624 328.768C256.624 332.736 255.952 336.256 254.608 339.328C253.328 342.336 251.6 344.896 249.424 347.008C247.248 349.056 244.688 350.624 241.744 351.712C238.864 352.8 235.856 353.344 232.72 353.344C229.52 353.344 226.48 352.8 223.6 351.712C220.72 350.624 218.192 349.056 216.016 347.008C213.84 344.896 212.08 342.336 210.736 339.328C209.456 336.256 208.816 332.736 208.816 328.768V327.616C208.816 323.712 209.456 320.256 210.736 317.248C212.08 314.176 213.84 311.584 216.016 309.472C218.256 307.36 220.816 305.76 223.696 304.672C226.576 303.584 229.584 303.04 232.72 303.04C235.856 303.04 238.864 303.584 241.744 304.672C244.624 305.76 247.152 307.36 249.328 309.472C251.568 311.584 253.328 314.176 254.608 317.248C255.952 320.256 256.624 323.712 256.624 327.616V328.768ZM232.72 346.24C235.024 346.24 237.136 345.856 239.056 345.088C241.04 344.256 242.768 343.072 244.24 341.536C245.712 340 246.864 338.176 247.696 336.064C248.528 333.888 248.944 331.456 248.944 328.768V327.616C248.944 325.056 248.528 322.72 247.696 320.608C246.864 318.432 245.712 316.576 244.24 315.04C242.768 313.504 241.04 312.32 239.056 311.488C237.072 310.592 234.96 310.144 232.72 310.144C230.48 310.144 228.368 310.592 226.384 311.488C224.4 312.32 222.672 313.504 221.2 315.04C219.728 316.576 218.576 318.432 217.744 320.608C216.912 322.72 216.496 325.056 216.496 327.616V328.768C216.496 331.456 216.912 333.888 217.744 336.064C218.576 338.176 219.728 340 221.2 341.536C222.672 343.072 224.368 344.256 226.288 345.088C228.272 345.856 230.416 346.24 232.72 346.24ZM278.349 324.352V352H270.285V284.8H294.285C297.741 284.8 300.749 285.312 303.309 286.336C305.869 287.296 307.981 288.608 309.645 290.272C311.373 291.936 312.653 293.888 313.485 296.128C314.381 298.304 314.829 300.608 314.829 303.04V305.92C314.829 308.352 314.381 310.688 313.485 312.928C312.653 315.168 311.373 317.152 309.645 318.88C307.917 320.544 305.773 321.888 303.213 322.912C300.653 323.872 297.677 324.352 294.285 324.352H278.349ZM278.349 316.864H293.325C302.285 316.864 306.765 313.024 306.765 305.344V303.616C306.765 300.224 305.645 297.504 303.405 295.456C301.229 293.344 297.869 292.288 293.325 292.288H278.349V316.864ZM363.818 343.936H362.666C361.13 347.136 358.986 349.504 356.234 351.04C353.546 352.576 350.698 353.344 347.69 353.344C344.554 353.344 341.642 352.832 338.954 351.808C336.266 350.72 333.898 349.152 331.85 347.104C329.866 344.992 328.298 342.432 327.146 339.424C325.994 336.416 325.418 332.928 325.418 328.96V327.424C325.418 323.52 325.994 320.064 327.146 317.056C328.298 314.048 329.866 311.52 331.85 309.472C333.898 307.36 336.266 305.76 338.954 304.672C341.642 303.584 344.49 303.04 347.498 303.04C350.762 303.04 353.706 303.776 356.33 305.248C359.018 306.656 361.13 308.864 362.666 311.872H363.818V304.384H371.306V342.208C371.306 344.128 372.17 345.088 373.898 345.088H376.298V352H371.21C369.034 352 367.242 351.296 365.834 349.888C364.49 348.48 363.818 346.688 363.818 344.512V343.936ZM348.458 346.24C350.698 346.24 352.746 345.824 354.602 344.992C356.522 344.16 358.154 342.976 359.498 341.44C360.842 339.904 361.898 338.08 362.666 335.968C363.434 333.792 363.818 331.392 363.818 328.768V327.616C363.818 325.056 363.434 322.72 362.666 320.608C361.898 318.432 360.81 316.576 359.402 315.04C358.058 313.504 356.426 312.32 354.506 311.488C352.65 310.592 350.634 310.144 348.458 310.144C346.218 310.144 344.17 310.56 342.314 311.392C340.458 312.224 338.826 313.408 337.418 314.944C336.074 316.416 335.018 318.24 334.25 320.416C333.482 322.528 333.098 324.864 333.098 327.424V328.96C333.098 334.4 334.506 338.656 337.322 341.728C340.202 344.736 343.914 346.24 348.458 346.24ZM397.928 316.672C397.928 318.976 398.888 320.736 400.808 321.952C402.792 323.168 406.376 323.968 411.56 324.352C417.128 324.8 421.352 326.144 424.232 328.384C427.176 330.56 428.648 333.76 428.648 337.984V338.56C428.648 340.864 428.168 342.944 427.208 344.8C426.312 346.592 425.032 348.128 423.368 349.408C421.768 350.688 419.784 351.648 417.416 352.288C415.112 352.992 412.584 353.344 409.832 353.344C406.12 353.344 402.92 352.864 400.232 351.904C397.608 350.88 395.4 349.568 393.608 347.968C391.88 346.304 390.568 344.448 389.672 342.4C388.776 340.288 388.264 338.176 388.136 336.064L395.24 334.336C395.56 337.984 396.968 340.928 399.464 343.168C401.96 345.344 405.288 346.432 409.448 346.432C412.968 346.432 415.784 345.76 417.896 344.416C420.072 343.008 421.16 341.056 421.16 338.56C421.16 335.872 420.104 333.952 417.992 332.8C415.88 331.648 412.456 330.912 407.72 330.592C402.216 330.208 397.992 328.928 395.048 326.752C392.104 324.576 390.632 321.408 390.632 317.248V316.672C390.632 314.432 391.112 312.48 392.072 310.816C393.032 309.088 394.312 307.648 395.912 306.496C397.576 305.344 399.432 304.48 401.48 303.904C403.528 303.328 405.672 303.04 407.911 303.04C411.048 303.04 413.8 303.488 416.168 304.384C418.536 305.216 420.52 306.336 422.12 307.744C423.72 309.088 424.936 310.656 425.768 312.448C426.664 314.24 427.24 316.032 427.496 317.824L420.392 319.552C420.072 316.48 418.824 314.08 416.648 312.352C414.536 310.624 411.752 309.76 408.296 309.76C406.952 309.76 405.64 309.92 404.359 310.24C403.144 310.496 402.056 310.912 401.096 311.488C400.136 312.064 399.368 312.8 398.792 313.696C398.216 314.528 397.928 315.52 397.928 316.672ZM456.709 316.672C456.709 318.976 457.669 320.736 459.589 321.952C461.573 323.168 465.157 323.968 470.341 324.352C475.909 324.8 480.133 326.144 483.013 328.384C485.957 330.56 487.429 333.76 487.429 337.984V338.56C487.429 340.864 486.949 342.944 485.989 344.8C485.093 346.592 483.813 348.128 482.149 349.408C480.549 350.688 478.565 351.648 476.197 352.288C473.893 352.992 471.365 353.344 468.613 353.344C464.901 353.344 461.701 352.864 459.013 351.904C456.389 350.88 454.181 349.568 452.389 347.968C450.661 346.304 449.349 344.448 448.453 342.4C447.557 340.288 447.045 338.176 446.917 336.064L454.021 334.336C454.341 337.984 455.749 340.928 458.245 343.168C460.741 345.344 464.069 346.432 468.229 346.432C471.749 346.432 474.565 345.76 476.677 344.416C478.853 343.008 479.941 341.056 479.941 338.56C479.941 335.872 478.885 333.952 476.773 332.8C474.661 331.648 471.237 330.912 466.501 330.592C460.997 330.208 456.773 328.928 453.829 326.752C450.885 324.576 449.413 321.408 449.413 317.248V316.672C449.413 314.432 449.893 312.48 450.853 310.816C451.813 309.088 453.093 307.648 454.693 306.496C456.357 305.344 458.213 304.48 460.261 303.904C462.309 303.328 464.453 303.04 466.693 303.04C469.829 303.04 472.581 303.488 474.949 304.384C477.317 305.216 479.301 306.336 480.901 307.744C482.501 309.088 483.717 310.656 484.549 312.448C485.445 314.24 486.021 316.032 486.277 317.824L479.173 319.552C478.853 316.48 477.605 314.08 475.429 312.352C473.317 310.624 470.533 309.76 467.077 309.76C465.733 309.76 464.421 309.92 463.141 310.24C461.925 310.496 460.837 310.912 459.877 311.488C458.917 312.064 458.149 312.8 457.573 313.696C456.997 314.528 456.709 315.52 456.709 316.672Z"/>
</mask>
<path d="M43.224 324.352V352H35.16V284.8H59.16C62.616 284.8 65.624 285.312 68.184 286.336C70.744 287.296 72.856 288.608 74.52 290.272C76.248 291.936 77.528 293.888 78.36 296.128C79.256 298.304 79.704 300.608 79.704 303.04V305.92C79.704 308.352 79.256 310.688 78.36 312.928C77.528 315.168 76.248 317.152 74.52 318.88C72.792 320.544 70.648 321.888 68.088 322.912C65.528 323.872 62.552 324.352 59.16 324.352H43.224ZM43.224 316.864H58.2C67.16 316.864 71.64 313.024 71.64 305.344V303.616C71.64 300.224 70.52 297.504 68.28 295.456C66.104 293.344 62.744 292.288 58.2 292.288H43.224V316.864ZM139.061 328.768C139.061 332.736 138.389 336.256 137.045 339.328C135.765 342.336 134.037 344.896 131.861 347.008C129.685 349.056 127.125 350.624 124.181 351.712C121.301 352.8 118.293 353.344 115.157 353.344C111.957 353.344 108.917 352.8 106.037 351.712C103.157 350.624 100.629 349.056 98.4532 347.008C96.2773 344.896 94.5173 342.336 93.1733 339.328C91.8933 336.256 91.2533 332.736 91.2533 328.768V327.616C91.2533 323.712 91.8933 320.256 93.1733 317.248C94.5173 314.176 96.2773 311.584 98.4532 309.472C100.693 307.36 103.253 305.76 106.133 304.672C109.013 303.584 112.021 303.04 115.157 303.04C118.293 303.04 121.301 303.584 124.181 304.672C127.061 305.76 129.589 307.36 131.765 309.472C134.005 311.584 135.765 314.176 137.045 317.248C138.389 320.256 139.061 323.712 139.061 327.616V328.768ZM115.157 346.24C117.461 346.24 119.573 345.856 121.493 345.088C123.477 344.256 125.205 343.072 126.677 341.536C128.149 340 129.301 338.176 130.133 336.064C130.965 333.888 131.381 331.456 131.381 328.768V327.616C131.381 325.056 130.965 322.72 130.133 320.608C129.301 318.432 128.149 316.576 126.677 315.04C125.205 313.504 123.477 312.32 121.493 311.488C119.509 310.592 117.397 310.144 115.157 310.144C112.917 310.144 110.805 310.592 108.821 311.488C106.837 312.32 105.109 313.504 103.637 315.04C102.165 316.576 101.013 318.432 100.181 320.608C99.3493 322.72 98.9333 325.056 98.9333 327.616V328.768C98.9333 331.456 99.3493 333.888 100.181 336.064C101.013 338.176 102.165 340 103.637 341.536C105.109 343.072 106.805 344.256 108.725 345.088C110.709 345.856 112.853 346.24 115.157 346.24ZM167.507 319.744H197.458V352H189.971V343.936H188.819C187.731 346.752 185.811 349.024 183.059 350.752C180.307 352.48 177.107 353.344 173.459 353.344C166.227 353.344 160.531 351.008 156.371 346.336C152.275 341.664 150.227 334.848 150.227 325.888V310.912C150.227 302.208 152.307 295.456 156.467 290.656C160.627 285.856 166.419 283.456 173.843 283.456C177.683 283.456 181.075 284.096 184.019 285.376C186.963 286.592 189.427 288.32 191.411 290.56C193.395 292.736 194.899 295.328 195.923 298.336C196.947 301.28 197.458 304.448 197.458 307.84V308.992H189.395V307.84C189.395 305.664 189.075 303.552 188.435 301.504C187.859 299.456 186.931 297.664 185.651 296.128C184.435 294.528 182.835 293.28 180.851 292.384C178.931 291.424 176.595 290.944 173.843 290.944C168.659 290.944 164.755 292.832 162.131 296.608C159.571 300.384 158.291 305.344 158.291 311.488V325.312C158.291 331.904 159.571 336.992 162.131 340.576C164.755 344.096 168.723 345.856 174.035 345.856C178.835 345.856 182.579 344.32 185.267 341.248C188.019 338.176 189.395 333.888 189.395 328.384V327.232H167.507V319.744ZM256.624 328.768C256.624 332.736 255.952 336.256 254.608 339.328C253.328 342.336 251.6 344.896 249.424 347.008C247.248 349.056 244.688 350.624 241.744 351.712C238.864 352.8 235.856 353.344 232.72 353.344C229.52 353.344 226.48 352.8 223.6 351.712C220.72 350.624 218.192 349.056 216.016 347.008C213.84 344.896 212.08 342.336 210.736 339.328C209.456 336.256 208.816 332.736 208.816 328.768V327.616C208.816 323.712 209.456 320.256 210.736 317.248C212.08 314.176 213.84 311.584 216.016 309.472C218.256 307.36 220.816 305.76 223.696 304.672C226.576 303.584 229.584 303.04 232.72 303.04C235.856 303.04 238.864 303.584 241.744 304.672C244.624 305.76 247.152 307.36 249.328 309.472C251.568 311.584 253.328 314.176 254.608 317.248C255.952 320.256 256.624 323.712 256.624 327.616V328.768ZM232.72 346.24C235.024 346.24 237.136 345.856 239.056 345.088C241.04 344.256 242.768 343.072 244.24 341.536C245.712 340 246.864 338.176 247.696 336.064C248.528 333.888 248.944 331.456 248.944 328.768V327.616C248.944 325.056 248.528 322.72 247.696 320.608C246.864 318.432 245.712 316.576 244.24 315.04C242.768 313.504 241.04 312.32 239.056 311.488C237.072 310.592 234.96 310.144 232.72 310.144C230.48 310.144 228.368 310.592 226.384 311.488C224.4 312.32 222.672 313.504 221.2 315.04C219.728 316.576 218.576 318.432 217.744 320.608C216.912 322.72 216.496 325.056 216.496 327.616V328.768C216.496 331.456 216.912 333.888 217.744 336.064C218.576 338.176 219.728 340 221.2 341.536C222.672 343.072 224.368 344.256 226.288 345.088C228.272 345.856 230.416 346.24 232.72 346.24ZM278.349 324.352V352H270.285V284.8H294.285C297.741 284.8 300.749 285.312 303.309 286.336C305.869 287.296 307.981 288.608 309.645 290.272C311.373 291.936 312.653 293.888 313.485 296.128C314.381 298.304 314.829 300.608 314.829 303.04V305.92C314.829 308.352 314.381 310.688 313.485 312.928C312.653 315.168 311.373 317.152 309.645 318.88C307.917 320.544 305.773 321.888 303.213 322.912C300.653 323.872 297.677 324.352 294.285 324.352H278.349ZM278.349 316.864H293.325C302.285 316.864 306.765 313.024 306.765 305.344V303.616C306.765 300.224 305.645 297.504 303.405 295.456C301.229 293.344 297.869 292.288 293.325 292.288H278.349V316.864ZM363.818 343.936H362.666C361.13 347.136 358.986 349.504 356.234 351.04C353.546 352.576 350.698 353.344 347.69 353.344C344.554 353.344 341.642 352.832 338.954 351.808C336.266 350.72 333.898 349.152 331.85 347.104C329.866 344.992 328.298 342.432 327.146 339.424C325.994 336.416 325.418 332.928 325.418 328.96V327.424C325.418 323.52 325.994 320.064 327.146 317.056C328.298 314.048 329.866 311.52 331.85 309.472C333.898 307.36 336.266 305.76 338.954 304.672C341.642 303.584 344.49 303.04 347.498 303.04C350.762 303.04 353.706 303.776 356.33 305.248C359.018 306.656 361.13 308.864 362.666 311.872H363.818V304.384H371.306V342.208C371.306 344.128 372.17 345.088 373.898 345.088H376.298V352H371.21C369.034 352 367.242 351.296 365.834 349.888C364.49 348.48 363.818 346.688 363.818 344.512V343.936ZM348.458 346.24C350.698 346.24 352.746 345.824 354.602 344.992C356.522 344.16 358.154 342.976 359.498 341.44C360.842 339.904 361.898 338.08 362.666 335.968C363.434 333.792 363.818 331.392 363.818 328.768V327.616C363.818 325.056 363.434 322.72 362.666 320.608C361.898 318.432 360.81 316.576 359.402 315.04C358.058 313.504 356.426 312.32 354.506 311.488C352.65 310.592 350.634 310.144 348.458 310.144C346.218 310.144 344.17 310.56 342.314 311.392C340.458 312.224 338.826 313.408 337.418 314.944C336.074 316.416 335.018 318.24 334.25 320.416C333.482 322.528 333.098 324.864 333.098 327.424V328.96C333.098 334.4 334.506 338.656 337.322 341.728C340.202 344.736 343.914 346.24 348.458 346.24ZM397.928 316.672C397.928 318.976 398.888 320.736 400.808 321.952C402.792 323.168 406.376 323.968 411.56 324.352C417.128 324.8 421.352 326.144 424.232 328.384C427.176 330.56 428.648 333.76 428.648 337.984V338.56C428.648 340.864 428.168 342.944 427.208 344.8C426.312 346.592 425.032 348.128 423.368 349.408C421.768 350.688 419.784 351.648 417.416 352.288C415.112 352.992 412.584 353.344 409.832 353.344C406.12 353.344 402.92 352.864 400.232 351.904C397.608 350.88 395.4 349.568 393.608 347.968C391.88 346.304 390.568 344.448 389.672 342.4C388.776 340.288 388.264 338.176 388.136 336.064L395.24 334.336C395.56 337.984 396.968 340.928 399.464 343.168C401.96 345.344 405.288 346.432 409.448 346.432C412.968 346.432 415.784 345.76 417.896 344.416C420.072 343.008 421.16 341.056 421.16 338.56C421.16 335.872 420.104 333.952 417.992 332.8C415.88 331.648 412.456 330.912 407.72 330.592C402.216 330.208 397.992 328.928 395.048 326.752C392.104 324.576 390.632 321.408 390.632 317.248V316.672C390.632 314.432 391.112 312.48 392.072 310.816C393.032 309.088 394.312 307.648 395.912 306.496C397.576 305.344 399.432 304.48 401.48 303.904C403.528 303.328 405.672 303.04 407.911 303.04C411.048 303.04 413.8 303.488 416.168 304.384C418.536 305.216 420.52 306.336 422.12 307.744C423.72 309.088 424.936 310.656 425.768 312.448C426.664 314.24 427.24 316.032 427.496 317.824L420.392 319.552C420.072 316.48 418.824 314.08 416.648 312.352C414.536 310.624 411.752 309.76 408.296 309.76C406.952 309.76 405.64 309.92 404.359 310.24C403.144 310.496 402.056 310.912 401.096 311.488C400.136 312.064 399.368 312.8 398.792 313.696C398.216 314.528 397.928 315.52 397.928 316.672ZM456.709 316.672C456.709 318.976 457.669 320.736 459.589 321.952C461.573 323.168 465.157 323.968 470.341 324.352C475.909 324.8 480.133 326.144 483.013 328.384C485.957 330.56 487.429 333.76 487.429 337.984V338.56C487.429 340.864 486.949 342.944 485.989 344.8C485.093 346.592 483.813 348.128 482.149 349.408C480.549 350.688 478.565 351.648 476.197 352.288C473.893 352.992 471.365 353.344 468.613 353.344C464.901 353.344 461.701 352.864 459.013 351.904C456.389 350.88 454.181 349.568 452.389 347.968C450.661 346.304 449.349 344.448 448.453 342.4C447.557 340.288 447.045 338.176 446.917 336.064L454.021 334.336C454.341 337.984 455.749 340.928 458.245 343.168C460.741 345.344 464.069 346.432 468.229 346.432C471.749 346.432 474.565 345.76 476.677 344.416C478.853 343.008 479.941 341.056 479.941 338.56C479.941 335.872 478.885 333.952 476.773 332.8C474.661 331.648 471.237 330.912 466.501 330.592C460.997 330.208 456.773 328.928 453.829 326.752C450.885 324.576 449.413 321.408 449.413 317.248V316.672C449.413 314.432 449.893 312.48 450.853 310.816C451.813 309.088 453.093 307.648 454.693 306.496C456.357 305.344 458.213 304.48 460.261 303.904C462.309 303.328 464.453 303.04 466.693 303.04C469.829 303.04 472.581 303.488 474.949 304.384C477.317 305.216 479.301 306.336 480.901 307.744C482.501 309.088 483.717 310.656 484.549 312.448C485.445 314.24 486.021 316.032 486.277 317.824L479.173 319.552C478.853 316.48 477.605 314.08 475.429 312.352C473.317 310.624 470.533 309.76 467.077 309.76C465.733 309.76 464.421 309.92 463.141 310.24C461.925 310.496 460.837 310.912 459.877 311.488C458.917 312.064 458.149 312.8 457.573 313.696C456.997 314.528 456.709 315.52 456.709 316.672Z" fill="url(#paint1_linear_1_4)"/>
<path d="M43.224 324.352V323.352H42.224V324.352H43.224ZM43.224 352V353H44.224V352H43.224ZM35.16 352H34.16V353H35.16V352ZM35.16 284.8V283.8H34.16V284.8H35.16ZM68.184 286.336L67.8126 287.264L67.8227 287.269L67.8329 287.272L68.184 286.336ZM74.52 290.272L73.8129 290.979L73.8196 290.986L73.8264 290.992L74.52 290.272ZM78.36 296.128L77.4226 296.476L77.4287 296.493L77.4353 296.509L78.36 296.128ZM78.36 312.928L77.4315 312.557L77.4269 312.568L77.4226 312.58L78.36 312.928ZM74.52 318.88L75.2136 319.6L75.2204 319.594L75.2271 319.587L74.52 318.88ZM68.088 322.912L68.4391 323.848L68.4493 323.845L68.4594 323.84L68.088 322.912ZM43.224 316.864H42.224V317.864H43.224V316.864ZM68.28 295.456L67.5835 296.174L67.5942 296.184L67.6052 296.194L68.28 295.456ZM43.224 292.288V291.288H42.224V292.288H43.224ZM42.224 324.352V352H44.224V324.352H42.224ZM43.224 351H35.16V353H43.224V351ZM36.16 352V284.8H34.16V352H36.16ZM35.16 285.8H59.16V283.8H35.16V285.8ZM59.16 285.8C62.5198 285.8 65.3965 286.298 67.8126 287.264L68.5554 285.408C65.8515 284.326 62.7122 283.8 59.16 283.8V285.8ZM67.8329 287.272C70.2807 288.19 72.2649 289.431 73.8129 290.979L75.2271 289.565C73.4471 287.785 71.2073 286.402 68.5351 285.4L67.8329 287.272ZM73.8264 290.992C75.4466 292.553 76.6431 294.378 77.4226 296.476L79.2974 295.78C78.4129 293.398 77.0494 291.319 75.2136 289.552L73.8264 290.992ZM77.4353 296.509C78.2799 298.56 78.704 300.734 78.704 303.04H80.704C80.704 300.482 80.2321 298.048 79.2847 295.747L77.4353 296.509ZM78.704 303.04V305.92H80.704V303.04H78.704ZM78.704 305.92C78.704 308.226 78.2799 310.436 77.4315 312.557L79.2885 313.299C80.2321 310.94 80.704 308.478 80.704 305.92H78.704ZM77.4226 312.58C76.6418 314.682 75.4416 316.544 73.8129 318.173L75.2271 319.587C77.0544 317.76 78.4142 315.654 79.2974 313.276L77.4226 312.58ZM73.8264 318.16C72.2042 319.722 70.1745 321 67.7166 321.984L68.4594 323.84C71.1215 322.776 73.3798 321.366 75.2136 319.6L73.8264 318.16ZM67.7369 321.976C65.3125 322.885 62.4599 323.352 59.16 323.352V325.352C62.6441 325.352 65.7435 324.859 68.4391 323.848L67.7369 321.976ZM59.16 323.352H43.224V325.352H59.16V323.352ZM43.224 317.864H58.2V315.864H43.224V317.864ZM58.2 317.864C62.7997 317.864 66.436 316.882 68.9308 314.743C71.4551 312.58 72.64 309.382 72.64 305.344H70.64C70.64 308.986 69.5849 311.548 67.6292 313.225C65.644 314.926 62.5603 315.864 58.2 315.864V317.864ZM72.64 305.344V303.616H70.64V305.344H72.64ZM72.64 303.616C72.64 299.98 71.4276 296.979 68.9548 294.718L67.6052 296.194C69.6125 298.029 70.64 300.468 70.64 303.616H72.64ZM68.9765 294.738C66.5389 292.373 62.8765 291.288 58.2 291.288V293.288C62.6115 293.288 65.6691 294.315 67.5835 296.174L68.9765 294.738ZM58.2 291.288H43.224V293.288H58.2V291.288ZM42.224 292.288V316.864H44.224V292.288H42.224ZM137.045 339.328L136.129 338.927L136.125 338.936L137.045 339.328ZM131.861 347.008L132.547 347.736L132.552 347.731L132.558 347.726L131.861 347.008ZM124.181 351.712L123.835 350.774L123.828 350.777L124.181 351.712ZM106.037 351.712L105.684 352.647L106.037 351.712ZM98.4532 347.008L97.7568 347.726L97.7623 347.731L97.7679 347.736L98.4532 347.008ZM93.1733 339.328L92.2502 339.713L92.2551 339.724L92.2602 339.736L93.1733 339.328ZM93.1733 317.248L92.257 316.847L92.2531 316.856L93.1733 317.248ZM98.4532 309.472L97.7672 308.744L97.762 308.749L97.7568 308.754L98.4532 309.472ZM106.133 304.672L106.487 305.607L106.487 305.607L106.133 304.672ZM124.181 304.672L123.828 305.607L123.828 305.607L124.181 304.672ZM131.765 309.472L131.069 310.19L131.074 310.195L131.079 310.2L131.765 309.472ZM137.045 317.248L136.122 317.633L136.127 317.644L136.132 317.656L137.045 317.248ZM121.493 345.088L121.865 346.016L121.872 346.013L121.88 346.01L121.493 345.088ZM126.677 341.536L125.955 340.844L125.955 340.844L126.677 341.536ZM130.133 336.064L131.064 336.431L131.067 336.421L130.133 336.064ZM130.133 320.608L129.199 320.965L129.203 320.975L130.133 320.608ZM121.493 311.488L121.082 312.399L121.094 312.405L121.107 312.41L121.493 311.488ZM108.821 311.488L109.208 312.41L109.22 312.405L109.233 312.399L108.821 311.488ZM100.181 320.608L101.112 320.975L101.115 320.965L100.181 320.608ZM100.181 336.064L99.2472 336.421L99.2508 336.431L100.181 336.064ZM103.637 341.536L104.359 340.844L104.359 340.844L103.637 341.536ZM108.725 345.088L108.328 346.006L108.346 346.013L108.364 346.021L108.725 345.088ZM138.061 328.768C138.061 332.623 137.409 336.003 136.129 338.927L137.961 339.729C139.37 336.509 140.061 332.849 140.061 328.768H138.061ZM136.125 338.936C134.893 341.832 133.238 344.278 131.165 346.29L132.558 347.726C134.836 345.514 136.637 342.84 137.965 339.72L136.125 338.936ZM131.176 346.28C129.102 348.231 126.659 349.73 123.835 350.774L124.528 352.65C127.591 351.518 130.268 349.881 132.547 347.736L131.176 346.28ZM123.828 350.777C121.063 351.821 118.175 352.344 115.157 352.344V354.344C118.412 354.344 121.54 353.779 124.535 352.647L123.828 350.777ZM115.157 352.344C112.073 352.344 109.153 351.82 106.391 350.777L105.684 352.647C108.681 353.78 111.841 354.344 115.157 354.344V352.344ZM106.391 350.777C103.63 349.734 101.216 348.235 99.1386 346.28L97.7679 347.736C100.043 349.877 102.684 351.514 105.684 352.647L106.391 350.777ZM99.1497 346.29C97.0725 344.274 95.3829 341.822 94.0863 338.92L92.2602 339.736C93.6516 342.85 95.482 345.518 97.7568 347.726L99.1497 346.29ZM94.0963 338.943C92.8759 336.014 92.2533 332.629 92.2533 328.768H90.2533C90.2533 332.843 90.9106 336.498 92.2502 339.713L94.0963 338.943ZM92.2533 328.768V327.616H90.2533V328.768H92.2533ZM92.2533 327.616C92.2533 323.821 92.8753 320.502 94.0934 317.64L92.2531 316.856C90.9112 320.01 90.2533 323.603 90.2533 327.616H92.2533ZM94.0894 317.649C95.3869 314.683 97.0762 312.202 99.1497 310.19L97.7568 308.754C95.4783 310.966 93.6476 313.669 92.2571 316.847L94.0894 317.649ZM99.1393 310.2C101.283 308.178 103.73 306.649 106.487 305.607L105.78 303.737C102.776 304.871 100.103 306.542 97.7672 308.744L99.1393 310.2ZM106.487 305.607C109.252 304.563 112.14 304.04 115.157 304.04V302.04C111.903 302.04 108.775 302.605 105.78 303.737L106.487 305.607ZM115.157 304.04C118.175 304.04 121.063 304.563 123.828 305.607L124.535 303.737C121.54 302.605 118.412 302.04 115.157 302.04V304.04ZM123.828 305.607C126.582 306.648 128.993 308.174 131.069 310.19L132.462 308.754C130.186 306.546 127.541 304.872 124.535 303.737L123.828 305.607ZM131.079 310.2C133.209 312.208 134.892 314.68 136.122 317.633L137.968 316.863C136.639 313.672 134.802 310.96 132.451 308.744L131.079 310.2ZM136.132 317.656C137.409 320.514 138.061 323.827 138.061 327.616H140.061C140.061 323.597 139.369 319.998 137.958 316.84L136.132 317.656ZM138.061 327.616V328.768H140.061V327.616H138.061ZM115.157 347.24C117.574 347.24 119.814 346.837 121.865 346.016L121.122 344.16C119.333 344.875 117.349 345.24 115.157 345.24V347.24ZM121.88 346.01C123.989 345.126 125.831 343.864 127.399 342.228L125.955 340.844C124.579 342.28 122.966 343.386 121.107 344.166L121.88 346.01ZM127.399 342.228C128.967 340.592 130.187 338.655 131.064 336.431L129.203 335.697C128.415 337.697 127.331 339.408 125.955 340.844L127.399 342.228ZM131.067 336.421C131.949 334.115 132.381 331.56 132.381 328.768H130.381C130.381 331.352 129.981 333.661 129.199 335.707L131.067 336.421ZM132.381 328.768V327.616H130.381V328.768H132.381ZM132.381 327.616C132.381 324.946 131.947 322.484 131.064 320.241L129.203 320.975C129.983 322.956 130.381 325.166 130.381 327.616H132.381ZM131.067 320.251C130.192 317.962 128.972 315.989 127.399 314.348L125.955 315.732C127.327 317.163 128.41 318.902 129.199 320.965L131.067 320.251ZM127.399 314.348C125.831 312.712 123.989 311.45 121.88 310.566L121.107 312.41C122.966 313.19 124.579 314.296 125.955 315.732L127.399 314.348ZM121.905 310.577C119.788 309.62 117.535 309.144 115.157 309.144V311.144C117.26 311.144 119.231 311.563 121.082 312.399L121.905 310.577ZM115.157 309.144C112.78 309.144 110.527 309.62 108.41 310.577L109.233 312.399C111.084 311.563 113.055 311.144 115.157 311.144V309.144ZM108.435 310.566C106.326 311.45 104.483 312.712 102.915 314.348L104.359 315.732C105.735 314.296 107.349 313.19 109.208 312.41L108.435 310.566ZM102.915 314.348C101.343 315.989 100.122 317.962 99.2472 320.251L101.115 320.965C101.904 318.902 102.988 317.163 104.359 315.732L102.915 314.348ZM99.2508 320.241C98.3674 322.484 97.9333 324.946 97.9333 327.616H99.9333C99.9333 325.166 100.331 322.956 101.112 320.975L99.2508 320.241ZM97.9333 327.616V328.768H99.9333V327.616H97.9333ZM97.9333 328.768C97.9333 331.56 98.3654 334.115 99.2472 336.421L101.115 335.707C100.333 333.661 99.9333 331.352 99.9333 328.768H97.9333ZM99.2508 336.431C100.127 338.655 101.347 340.592 102.915 342.228L104.359 340.844C102.983 339.408 101.899 337.697 101.112 335.697L99.2508 336.431ZM102.915 342.228C104.478 343.858 106.284 345.12 108.328 346.006L109.123 344.17C107.327 343.392 105.741 342.286 104.359 340.844L102.915 342.228ZM108.364 346.021C110.473 346.837 112.74 347.24 115.157 347.24V345.24C112.966 345.24 110.946 344.875 109.086 344.155L108.364 346.021ZM167.507 319.744V318.744H166.507V319.744H167.507ZM197.458 319.744H198.458V318.744H197.458V319.744ZM197.458 352V353H198.458V352H197.458ZM189.971 352H188.971V353H189.971V352ZM189.971 343.936H190.971V342.936H189.971V343.936ZM188.819 343.936V342.936H188.133L187.886 343.576L188.819 343.936ZM183.059 350.752L183.59 351.599L183.59 351.599L183.059 350.752ZM156.371 346.336L155.619 346.995L155.624 347.001L156.371 346.336ZM156.467 290.656L155.711 290.001L155.711 290.001L156.467 290.656ZM184.019 285.376L183.62 286.293L183.628 286.297L183.637 286.3L184.019 285.376ZM191.411 290.56L190.662 291.223L190.667 291.228L190.672 291.234L191.411 290.56ZM195.923 298.336L194.976 298.658L194.978 298.665L195.923 298.336ZM197.458 308.992V309.992H198.458V308.992H197.458ZM189.395 308.992H188.395V309.992H189.395V308.992ZM188.435 301.504L187.472 301.775L187.476 301.789L187.48 301.802L188.435 301.504ZM185.651 296.128L184.854 296.733L184.868 296.751L184.882 296.768L185.651 296.128ZM180.851 292.384L180.403 293.278L180.421 293.287L180.439 293.295L180.851 292.384ZM162.131 296.608L161.309 296.037L161.303 296.047L162.131 296.608ZM162.131 340.576L161.317 341.157L161.323 341.166L161.329 341.174L162.131 340.576ZM185.267 341.248L184.522 340.581L184.514 340.589L185.267 341.248ZM189.395 327.232H190.395V326.232H189.395V327.232ZM167.507 327.232H166.507V328.232H167.507V327.232ZM167.507 320.744H197.458V318.744H167.507V320.744ZM196.458 319.744V352H198.458V319.744H196.458ZM197.458 351H189.971V353H197.458V351ZM190.971 352V343.936H188.971V352H190.971ZM189.971 342.936H188.819V344.936H189.971V342.936ZM187.886 343.576C186.882 346.175 185.111 348.282 182.527 349.905L183.59 351.599C186.51 349.766 188.58 347.329 189.751 344.296L187.886 343.576ZM182.527 349.905C179.953 351.521 176.942 352.344 173.459 352.344V354.344C177.271 354.344 180.66 353.439 183.59 351.599L182.527 349.905ZM173.459 352.344C166.463 352.344 161.057 350.096 157.117 345.671L155.624 347.001C160.004 351.92 165.99 354.344 173.459 354.344V352.344ZM157.122 345.677C153.244 341.253 151.227 334.711 151.227 325.888H149.227C149.227 334.985 151.305 342.075 155.619 346.995L157.122 345.677ZM151.227 325.888V310.912H149.227V325.888H151.227ZM151.227 310.912C151.227 302.359 153.27 295.871 157.222 291.311L155.711 290.001C151.343 295.041 149.227 302.057 149.227 310.912H151.227ZM157.222 291.311C161.159 286.768 166.654 284.456 173.843 284.456V282.456C166.183 282.456 160.094 284.944 155.711 290.001L157.222 291.311ZM173.843 284.456C177.572 284.456 180.824 285.077 183.62 286.293L184.417 284.459C181.325 283.115 177.793 282.456 173.843 282.456V284.456ZM183.637 286.3C186.449 287.462 188.785 289.104 190.662 291.223L192.159 289.897C190.068 287.536 187.476 285.722 184.4 284.452L183.637 286.3ZM190.672 291.234C192.556 293.3 193.993 295.77 194.976 298.658L196.869 298.014C195.804 294.886 194.233 292.172 192.149 289.886L190.672 291.234ZM194.978 298.665C195.962 301.494 196.458 304.55 196.458 307.84H198.458C198.458 304.346 197.931 301.066 196.867 298.007L194.978 298.665ZM196.458 307.84V308.992H198.458V307.84H196.458ZM197.458 307.992H189.395V309.992H197.458V307.992ZM190.395 308.992V307.84H188.395V308.992H190.395ZM190.395 307.84C190.395 305.564 190.06 303.352 189.389 301.206L187.48 301.802C188.089 303.752 188.395 305.764 188.395 307.84H190.395ZM189.397 301.233C188.786 299.059 187.794 297.139 186.419 295.488L184.882 296.768C186.067 298.189 186.931 299.853 187.472 301.775L189.397 301.233ZM186.447 295.523C185.122 293.78 183.385 292.431 181.262 291.473L180.439 293.295C182.284 294.129 183.747 295.276 184.854 296.733L186.447 295.523ZM181.298 291.49C179.205 290.443 176.707 289.944 173.843 289.944V291.944C176.482 291.944 178.656 292.405 180.403 293.278L181.298 291.49ZM173.843 289.944C168.379 289.944 164.146 291.955 161.309 296.037L162.952 297.179C165.363 293.709 168.938 291.944 173.843 291.944V289.944ZM161.303 296.047C158.598 300.037 157.291 305.212 157.291 311.488H159.291C159.291 305.476 160.543 300.731 162.958 297.169L161.303 296.047ZM157.291 311.488V325.312H159.291V311.488H157.291ZM157.291 325.312C157.291 332.014 158.589 337.338 161.317 341.157L162.944 339.995C160.552 336.646 159.291 331.794 159.291 325.312H157.291ZM161.329 341.174C164.182 345.001 168.481 346.856 174.035 346.856V344.856C168.964 344.856 165.327 343.191 162.932 339.978L161.329 341.174ZM174.035 346.856C179.067 346.856 183.107 345.234 186.019 341.907L184.514 340.589C182.05 343.406 178.602 344.856 174.035 344.856V346.856ZM186.011 341.915C188.976 338.606 190.395 334.051 190.395 328.384H188.395C188.395 333.725 187.061 337.746 184.522 340.581L186.011 341.915ZM190.395 328.384V327.232H188.395V328.384H190.395ZM189.395 326.232H167.507V328.232H189.395V326.232ZM168.507 327.232V319.744H166.507V327.232H168.507ZM254.608 339.328L253.692 338.927L253.688 338.936L254.608 339.328ZM249.424 347.008L250.109 347.736L250.115 347.731L250.12 347.726L249.424 347.008ZM241.744 351.712L241.397 350.774L241.39 350.777L241.744 351.712ZM223.6 351.712L223.246 352.647L223.6 351.712ZM216.016 347.008L215.319 347.726L215.325 347.731L215.33 347.736L216.016 347.008ZM210.736 339.328L209.813 339.713L209.818 339.724L209.823 339.736L210.736 339.328ZM210.736 317.248L209.82 316.847L209.816 316.856L210.736 317.248ZM216.016 309.472L215.33 308.744L215.324 308.749L215.319 308.754L216.016 309.472ZM223.696 304.672L224.049 305.607L224.049 305.607L223.696 304.672ZM241.744 304.672L241.39 305.607L241.39 305.607L241.744 304.672ZM249.328 309.472L248.631 310.19L248.636 310.195L248.642 310.2L249.328 309.472ZM254.608 317.248L253.685 317.633L253.69 317.644L253.695 317.656L254.608 317.248ZM239.056 345.088L239.427 346.016L239.435 346.013L239.442 346.01L239.056 345.088ZM244.24 341.536L243.518 340.844L243.518 340.844L244.24 341.536ZM247.696 336.064L248.626 336.431L248.63 336.421L247.696 336.064ZM247.696 320.608L246.762 320.965L246.765 320.975L247.696 320.608ZM239.056 311.488L238.644 312.399L238.657 312.405L238.669 312.41L239.056 311.488ZM226.384 311.488L226.77 312.41L226.783 312.405L226.795 312.399L226.384 311.488ZM217.744 320.608L218.674 320.975L218.678 320.965L217.744 320.608ZM217.744 336.064L216.81 336.421L216.813 336.431L217.744 336.064ZM221.2 341.536L221.922 340.844L221.922 340.844L221.2 341.536ZM226.288 345.088L225.89 346.006L225.908 346.013L225.927 346.021L226.288 345.088ZM255.624 328.768C255.624 332.623 254.971 336.003 253.692 338.927L255.524 339.729C256.932 336.509 257.624 332.849 257.624 328.768H255.624ZM253.688 338.936C252.456 341.832 250.801 344.278 248.727 346.29L250.12 347.726C252.399 345.514 254.2 342.84 255.528 339.72L253.688 338.936ZM248.738 346.28C246.665 348.231 244.222 349.73 241.397 350.774L242.09 352.65C245.154 351.518 247.831 349.881 250.109 347.736L248.738 346.28ZM241.39 350.777C238.625 351.821 235.737 352.344 232.72 352.344V354.344C235.974 354.344 239.102 353.779 242.097 352.647L241.39 350.777ZM232.72 352.344C229.636 352.344 226.716 351.82 223.953 350.777L223.246 352.647C226.244 353.78 229.404 354.344 232.72 354.344V352.344ZM223.953 350.777C221.193 349.734 218.778 348.235 216.701 346.28L215.33 347.736C217.605 349.877 220.247 351.514 223.246 352.647L223.953 350.777ZM216.712 346.29C214.635 344.274 212.945 341.822 211.649 338.92L209.823 339.736C211.214 342.85 213.044 345.518 215.319 347.726L216.712 346.29ZM211.659 338.943C210.438 336.014 209.816 332.629 209.816 328.768H207.816C207.816 332.843 208.473 336.498 209.813 339.713L211.659 338.943ZM209.816 328.768V327.616H207.816V328.768H209.816ZM209.816 327.616C209.816 323.821 210.438 320.502 211.656 317.64L209.816 316.856C208.474 320.01 207.816 323.603 207.816 327.616H209.816ZM211.652 317.649C212.949 314.683 214.639 312.202 216.712 310.19L215.319 308.754C213.041 310.966 211.21 313.669 209.82 316.847L211.652 317.649ZM216.702 310.2C218.846 308.178 221.293 306.649 224.049 305.607L223.342 303.737C220.339 304.871 217.666 306.542 215.33 308.744L216.702 310.2ZM224.049 305.607C226.814 304.563 229.702 304.04 232.72 304.04V302.04C229.465 302.04 226.337 302.605 223.342 303.737L224.049 305.607ZM232.72 304.04C235.737 304.04 238.625 304.563 241.39 305.607L242.097 303.737C239.102 302.605 235.974 302.04 232.72 302.04V304.04ZM241.39 305.607C244.144 306.648 246.555 308.174 248.631 310.19L250.024 308.754C247.748 306.546 245.103 304.872 242.097 303.737L241.39 305.607ZM248.642 310.2C250.771 312.208 252.454 314.68 253.685 317.633L255.531 316.863C254.201 313.672 252.364 310.96 250.014 308.744L248.642 310.2ZM253.695 317.656C254.972 320.514 255.624 323.827 255.624 327.616H257.624C257.624 323.597 256.932 319.998 255.521 316.84L253.695 317.656ZM255.624 327.616V328.768H257.624V327.616H255.624ZM232.72 347.24C235.136 347.24 237.376 346.837 239.427 346.016L238.684 344.16C236.895 344.875 234.911 345.24 232.72 345.24V347.24ZM239.442 346.01C241.551 345.126 243.394 343.864 244.962 342.228L243.518 340.844C242.142 342.28 240.528 343.386 238.669 344.166L239.442 346.01ZM244.962 342.228C246.53 340.592 247.75 338.655 248.626 336.431L246.765 335.697C245.978 337.697 244.894 339.408 243.518 340.844L244.962 342.228ZM248.63 336.421C249.512 334.115 249.944 331.56 249.944 328.768H247.944C247.944 331.352 247.544 333.661 246.762 335.707L248.63 336.421ZM249.944 328.768V327.616H247.944V328.768H249.944ZM249.944 327.616C249.944 324.946 249.51 322.484 248.626 320.241L246.765 320.975C247.546 322.956 247.944 325.166 247.944 327.616H249.944ZM248.63 320.251C247.755 317.962 246.534 315.989 244.962 314.348L243.518 315.732C244.889 317.163 245.973 318.902 246.762 320.965L248.63 320.251ZM244.962 314.348C243.394 312.712 241.551 311.45 239.442 310.566L238.669 312.41C240.528 313.19 242.142 314.296 243.518 315.732L244.962 314.348ZM239.467 310.577C237.35 309.62 235.097 309.144 232.72 309.144V311.144C234.822 311.144 236.793 311.563 238.644 312.399L239.467 310.577ZM232.72 309.144C230.342 309.144 228.089 309.62 225.972 310.577L226.795 312.399C228.646 311.563 230.617 311.144 232.72 311.144V309.144ZM225.997 310.566C223.888 311.45 222.046 312.712 220.478 314.348L221.922 315.732C223.298 314.296 224.911 313.19 226.77 312.41L225.997 310.566ZM220.478 314.348C218.905 315.989 217.685 317.962 216.81 320.251L218.678 320.965C219.467 318.902 220.55 317.163 221.922 315.732L220.478 314.348ZM216.813 320.241C215.93 322.484 215.496 324.946 215.496 327.616H217.496C217.496 325.166 217.894 322.956 218.674 320.975L216.813 320.241ZM215.496 327.616V328.768H217.496V327.616H215.496ZM215.496 328.768C215.496 331.56 215.928 334.115 216.81 336.421L218.678 335.707C217.896 333.661 217.496 331.352 217.496 328.768H215.496ZM216.813 336.431C217.69 338.655 218.91 340.592 220.478 342.228L221.922 340.844C220.546 339.408 219.462 337.697 218.674 335.697L216.813 336.431ZM220.478 342.228C222.04 343.858 223.846 345.12 225.89 346.006L226.685 344.17C224.889 343.392 223.303 342.286 221.922 340.844L220.478 342.228ZM225.927 346.021C228.035 346.837 230.303 347.24 232.72 347.24V345.24C230.529 345.24 228.508 344.875 226.649 344.155L225.927 346.021ZM278.349 324.352V323.352H277.349V324.352H278.349ZM278.349 352V353H279.349V352H278.349ZM270.285 352H269.285V353H270.285V352ZM270.285 284.8V283.8H269.285V284.8H270.285ZM303.309 286.336L302.938 287.264L302.948 287.269L302.958 287.272L303.309 286.336ZM309.645 290.272L308.938 290.979L308.945 290.986L308.951 290.992L309.645 290.272ZM313.485 296.128L312.548 296.476L312.554 296.493L312.56 296.509L313.485 296.128ZM313.485 312.928L312.557 312.557L312.552 312.568L312.548 312.58L313.485 312.928ZM309.645 318.88L310.339 319.6L310.345 319.594L310.352 319.587L309.645 318.88ZM303.213 322.912L303.564 323.848L303.574 323.845L303.584 323.84L303.213 322.912ZM278.349 316.864H277.349V317.864H278.349V316.864ZM303.405 295.456L302.709 296.174L302.719 296.184L302.73 296.194L303.405 295.456ZM278.349 292.288V291.288H277.349V292.288H278.349ZM277.349 324.352V352H279.349V324.352H277.349ZM278.349 351H270.285V353H278.349V351ZM271.285 352V284.8H269.285V352H271.285ZM270.285 285.8H294.285V283.8H270.285V285.8ZM294.285 285.8C297.645 285.8 300.521 286.298 302.938 287.264L303.68 285.408C300.977 284.326 297.837 283.8 294.285 283.8V285.8ZM302.958 287.272C305.406 288.19 307.39 289.431 308.938 290.979L310.352 289.565C308.572 287.785 306.332 286.402 303.66 285.4L302.958 287.272ZM308.951 290.992C310.572 292.553 311.768 294.378 312.548 296.476L314.422 295.78C313.538 293.398 312.174 291.319 310.339 289.552L308.951 290.992ZM312.56 296.509C313.405 298.56 313.829 300.734 313.829 303.04H315.829C315.829 300.482 315.357 298.048 314.41 295.747L312.56 296.509ZM313.829 303.04V305.92H315.829V303.04H313.829ZM313.829 305.92C313.829 308.226 313.405 310.436 312.557 312.557L314.413 313.299C315.357 310.94 315.829 308.478 315.829 305.92H313.829ZM312.548 312.58C311.767 314.682 310.567 316.544 308.938 318.173L310.352 319.587C312.179 317.76 313.539 315.654 314.422 313.276L312.548 312.58ZM308.951 318.16C307.329 319.722 305.299 321 302.842 321.984L303.584 323.84C306.247 322.776 308.505 321.366 310.339 319.6L308.951 318.16ZM302.862 321.976C300.438 322.885 297.585 323.352 294.285 323.352V325.352C297.769 325.352 300.868 324.859 303.564 323.848L302.862 321.976ZM294.285 323.352H278.349V325.352H294.285V323.352ZM278.349 317.864H293.325V315.864H278.349V317.864ZM293.325 317.864C297.925 317.864 301.561 316.882 304.056 314.743C306.58 312.58 307.765 309.382 307.765 305.344H305.765C305.765 308.986 304.71 311.548 302.754 313.225C300.769 314.926 297.685 315.864 293.325 315.864V317.864ZM307.765 305.344V303.616H305.765V305.344H307.765ZM307.765 303.616C307.765 299.98 306.553 296.979 304.08 294.718L302.73 296.194C304.737 298.029 305.765 300.468 305.765 303.616H307.765ZM304.101 294.738C301.664 292.373 298.001 291.288 293.325 291.288V293.288C297.737 293.288 300.794 294.315 302.709 296.174L304.101 294.738ZM293.325 291.288H278.349V293.288H293.325V291.288ZM277.349 292.288V316.864H279.349V292.288H277.349ZM363.818 343.936H364.818V342.936H363.818V343.936ZM362.666 343.936V342.936H362.037L361.765 343.503L362.666 343.936ZM356.234 351.04L355.747 350.167L355.738 350.172L356.234 351.04ZM338.954 351.808L338.579 352.735L338.589 352.739L338.598 352.742L338.954 351.808ZM331.85 347.104L331.121 347.789L331.132 347.8L331.143 347.811L331.85 347.104ZM327.146 339.424L328.08 339.066L328.08 339.066L327.146 339.424ZM327.146 317.056L326.212 316.698L326.212 316.698L327.146 317.056ZM331.85 309.472L331.132 308.776L331.132 308.776L331.85 309.472ZM356.33 305.248L355.841 306.12L355.854 306.127L355.866 306.134L356.33 305.248ZM362.666 311.872L361.776 312.327L362.054 312.872H362.666V311.872ZM363.818 311.872V312.872H364.818V311.872H363.818ZM363.818 304.384V303.384H362.818V304.384H363.818ZM371.306 304.384H372.306V303.384H371.306V304.384ZM376.298 345.088H377.298V344.088H376.298V345.088ZM376.298 352V353H377.298V352H376.298ZM365.834 349.888L365.111 350.578L365.119 350.587L365.127 350.595L365.834 349.888ZM354.602 344.992L354.205 344.074L354.193 344.079L354.602 344.992ZM359.498 341.44L358.746 340.781L358.746 340.781L359.498 341.44ZM362.666 335.968L363.606 336.31L363.609 336.301L362.666 335.968ZM362.666 320.608L361.723 320.941L361.726 320.95L362.666 320.608ZM359.402 315.04L358.65 315.699L358.657 315.707L358.665 315.716L359.402 315.04ZM354.506 311.488L354.072 312.389L354.09 312.397L354.109 312.406L354.506 311.488ZM342.314 311.392L342.723 312.305L342.723 312.305L342.314 311.392ZM337.418 314.944L336.681 314.268L336.68 314.27L337.418 314.944ZM334.25 320.416L335.19 320.758L335.193 320.749L334.25 320.416ZM337.322 341.728L336.585 342.404L336.592 342.412L336.6 342.42L337.322 341.728ZM363.818 342.936H362.666V344.936H363.818V342.936ZM361.765 343.503C360.306 346.542 358.296 348.744 355.747 350.167L356.722 351.913C359.676 350.264 361.954 347.73 363.568 344.369L361.765 343.503ZM355.738 350.172C353.197 351.624 350.519 352.344 347.69 352.344V354.344C350.878 354.344 353.896 353.528 356.73 351.908L355.738 350.172ZM347.69 352.344C344.665 352.344 341.875 351.85 339.31 350.874L338.598 352.742C341.41 353.814 344.444 354.344 347.69 354.344V352.344ZM339.329 350.881C336.766 349.843 334.51 348.35 332.557 346.397L331.143 347.811C333.286 349.954 335.767 351.597 338.579 352.735L339.329 350.881ZM332.579 346.419C330.693 344.412 329.191 341.967 328.08 339.066L326.212 339.782C327.406 342.897 329.039 345.572 331.121 347.789L332.579 346.419ZM328.08 339.066C326.981 336.196 326.418 332.833 326.418 328.96H324.418C324.418 333.023 325.008 336.636 326.212 339.782L328.08 339.066ZM326.418 328.96V327.424H324.418V328.96H326.418ZM326.418 327.424C326.418 323.617 326.98 320.286 328.08 317.414L326.212 316.698C325.008 319.842 324.418 323.423 324.418 327.424H326.418ZM328.08 317.414C329.19 314.515 330.69 312.107 332.568 310.168L331.132 308.776C329.043 310.933 327.406 313.581 326.212 316.698L328.08 317.414ZM332.568 310.168C334.521 308.155 336.772 306.634 339.329 305.599L338.579 303.745C335.76 304.886 333.276 306.565 331.132 308.776L332.568 310.168ZM339.329 305.599C341.894 304.561 344.614 304.04 347.498 304.04V302.04C344.367 302.04 341.391 302.607 338.579 303.745L339.329 305.599ZM347.498 304.04C350.606 304.04 353.379 304.739 355.841 306.12L356.82 304.376C354.034 302.813 350.919 302.04 347.498 302.04V304.04ZM355.866 306.134C358.35 307.435 360.323 309.481 361.776 312.327L363.557 311.417C361.938 308.247 359.686 305.877 356.794 304.362L355.866 306.134ZM362.666 312.872H363.818V310.872H362.666V312.872ZM364.818 311.872V304.384H362.818V311.872H364.818ZM363.818 305.384H371.306V303.384H363.818V305.384ZM370.306 304.384V342.208H372.306V304.384H370.306ZM370.306 342.208C370.306 343.298 370.549 344.302 371.211 345.037C371.891 345.792 372.851 346.088 373.898 346.088V344.088C373.217 344.088 372.882 343.904 372.698 343.699C372.495 343.474 372.306 343.038 372.306 342.208H370.306ZM373.898 346.088H376.298V344.088H373.898V346.088ZM375.298 345.088V352H377.298V345.088H375.298ZM376.298 351H371.21V353H376.298V351ZM371.21 351C369.272 351 367.743 350.383 366.541 349.181L365.127 350.595C366.741 352.209 368.796 353 371.21 353V351ZM366.558 349.198C365.413 347.998 364.818 346.464 364.818 344.512H362.818C362.818 346.912 363.568 348.962 365.111 350.578L366.558 349.198ZM364.818 344.512V343.936H362.818V344.512H364.818ZM348.458 347.24C350.825 347.24 353.014 346.8 355.011 345.905L354.193 344.079C352.478 344.848 350.572 345.24 348.458 345.24V347.24ZM355 345.91C357.052 345.02 358.807 343.749 360.251 342.099L358.746 340.781C357.502 342.203 355.992 343.3 354.205 344.074L355 345.91ZM360.251 342.099C361.684 340.46 362.8 338.526 363.606 336.31L361.726 335.626C360.996 337.634 360 339.348 358.746 340.781L360.251 342.099ZM363.609 336.301C364.42 334.004 364.818 331.49 364.818 328.768H362.818C362.818 331.294 362.449 333.58 361.723 335.635L363.609 336.301ZM364.818 328.768V327.616H362.818V328.768H364.818ZM364.818 327.616C364.818 324.955 364.419 322.502 363.606 320.266L361.726 320.95C362.449 322.938 362.818 325.157 362.818 327.616H364.818ZM363.609 320.275C362.801 317.986 361.648 316.01 360.139 314.364L358.665 315.716C359.973 317.142 360.995 318.878 361.723 320.941L363.609 320.275ZM360.155 314.381C358.711 312.731 356.956 311.46 354.904 310.57L354.109 312.406C355.896 313.18 357.406 314.277 358.65 315.699L360.155 314.381ZM354.941 310.587C352.942 309.622 350.776 309.144 348.458 309.144V311.144C350.492 311.144 352.359 311.562 354.072 312.389L354.941 310.587ZM348.458 309.144C346.092 309.144 343.902 309.584 341.905 310.479L342.723 312.305C344.438 311.536 346.345 311.144 348.458 311.144V309.144ZM341.905 310.479C339.922 311.369 338.179 312.634 336.681 314.268L338.155 315.62C339.474 314.182 340.995 313.079 342.723 312.305L341.905 310.479ZM336.68 314.27C335.232 315.855 334.113 317.801 333.307 320.083L335.193 320.749C335.924 318.679 336.916 316.977 338.157 315.618L336.68 314.27ZM333.31 320.074C332.497 322.31 332.098 324.763 332.098 327.424H334.098C334.098 324.965 334.467 322.746 335.19 320.758L333.31 320.074ZM332.098 327.424V328.96H334.098V327.424H332.098ZM332.098 328.96C332.098 334.572 333.554 339.097 336.585 342.404L338.059 341.052C335.459 338.215 334.098 334.228 334.098 328.96H332.098ZM336.6 342.42C339.687 345.644 343.669 347.24 348.458 347.24V345.24C344.159 345.24 340.718 343.828 338.045 341.036L336.6 342.42ZM400.808 321.952L400.272 322.797L400.279 322.801L400.285 322.805L400.808 321.952ZM411.56 324.352L411.64 323.355L411.633 323.355L411.56 324.352ZM424.232 328.384L423.618 329.173L423.627 329.181L423.637 329.188L424.232 328.384ZM427.208 344.8L426.319 344.341L426.313 344.353L427.208 344.8ZM423.368 349.408L422.758 348.615L422.75 348.621L422.743 348.627L423.368 349.408ZM417.416 352.288L417.155 351.323L417.139 351.327L417.123 351.332L417.416 352.288ZM400.232 351.904L399.868 352.836L399.881 352.841L399.895 352.846L400.232 351.904ZM393.608 347.968L392.914 348.688L392.927 348.701L392.941 348.714L393.608 347.968ZM389.672 342.4L388.751 342.791L388.755 342.801L389.672 342.4ZM388.136 336.064L387.899 335.092L387.087 335.29L387.137 336.124L388.136 336.064ZM395.24 334.336L396.236 334.249L396.134 333.089L395.003 333.364L395.24 334.336ZM399.464 343.168L398.796 343.912L398.801 343.917L398.806 343.922L399.464 343.168ZM417.896 344.416L418.432 345.26L418.439 345.256L417.896 344.416ZM417.992 332.8L417.513 333.678L417.513 333.678L417.992 332.8ZM407.72 330.592L407.65 331.59L407.652 331.59L407.72 330.592ZM395.048 326.752L394.453 327.556L394.453 327.556L395.048 326.752ZM392.072 310.816L392.938 311.316L392.942 311.309L392.946 311.302L392.072 310.816ZM395.912 306.496L395.342 305.674L395.335 305.679L395.327 305.684L395.912 306.496ZM401.48 303.904L401.209 302.941L401.209 302.941L401.48 303.904ZM416.168 304.384L415.814 305.319L415.825 305.324L415.836 305.327L416.168 304.384ZM422.12 307.744L421.459 308.495L421.468 308.502L421.476 308.51L422.12 307.744ZM425.768 312.448L424.86 312.869L424.867 312.882L424.873 312.895L425.768 312.448ZM427.496 317.824L427.732 318.796L428.614 318.581L428.485 317.683L427.496 317.824ZM420.392 319.552L419.397 319.656L419.515 320.794L420.628 320.524L420.392 319.552ZM416.648 312.352L416.014 313.126L416.02 313.131L416.026 313.135L416.648 312.352ZM404.359 310.24L404.566 311.219L404.584 311.215L404.602 311.21L404.359 310.24ZM398.792 313.696L399.614 314.265L399.623 314.251L399.633 314.237L398.792 313.696ZM396.928 316.672C396.928 319.313 398.058 321.394 400.272 322.797L401.343 321.107C399.717 320.078 398.928 318.639 398.928 316.672H396.928ZM400.285 322.805C402.492 324.157 406.293 324.965 411.486 325.349L411.633 323.355C406.458 322.971 403.091 322.179 401.33 321.099L400.285 322.805ZM411.479 325.349C416.949 325.789 420.953 327.101 423.618 329.173L424.845 327.595C421.75 325.187 417.306 323.811 411.64 323.355L411.479 325.349ZM423.637 329.188C426.284 331.145 427.648 334.022 427.648 337.984H429.648C429.648 333.498 428.067 329.975 424.826 327.58L423.637 329.188ZM427.648 337.984V338.56H429.648V337.984H427.648ZM427.648 338.56C427.648 340.721 427.199 342.641 426.319 344.341L428.096 345.259C429.136 343.247 429.648 341.007 429.648 338.56H427.648ZM426.313 344.353C425.488 346.003 424.308 347.423 422.758 348.615L423.977 350.201C425.755 348.833 427.135 347.181 428.102 345.247L426.313 344.353ZM422.743 348.627C421.269 349.806 419.416 350.712 417.155 351.323L417.676 353.253C420.151 352.584 422.266 351.57 423.992 350.189L422.743 348.627ZM417.123 351.332C414.926 352.003 412.498 352.344 409.832 352.344V354.344C412.669 354.344 415.297 353.981 417.708 353.244L417.123 351.332ZM409.832 352.344C406.202 352.344 403.121 351.874 400.568 350.962L399.895 352.846C402.718 353.854 406.037 354.344 409.832 354.344V352.344ZM400.595 350.972C398.063 349.984 395.963 348.73 394.274 347.222L392.941 348.714C394.836 350.406 397.152 351.776 399.868 352.836L400.595 350.972ZM394.301 347.248C392.661 345.668 391.427 343.919 390.588 341.999L388.755 342.801C389.708 344.977 391.098 346.94 392.914 348.688L394.301 347.248ZM390.592 342.009C389.737 339.993 389.254 337.993 389.134 336.004L387.137 336.124C387.273 338.359 387.814 340.583 388.751 342.791L390.592 342.009ZM388.372 337.036L395.476 335.308L395.003 333.364L387.899 335.092L388.372 337.036ZM394.243 334.423C394.583 338.299 396.093 341.487 398.796 343.912L400.131 342.424C397.842 340.369 396.536 337.669 396.236 334.249L394.243 334.423ZM398.806 343.922C401.528 346.294 405.11 347.432 409.448 347.432V345.432C405.465 345.432 402.391 344.394 400.121 342.414L398.806 343.922ZM409.448 347.432C413.084 347.432 416.107 346.739 418.432 345.26L417.359 343.572C415.46 344.781 412.851 345.432 409.448 345.432V347.432ZM418.439 345.256C420.886 343.672 422.16 341.411 422.16 338.56H420.16C420.16 340.701 419.257 342.344 417.352 343.576L418.439 345.256ZM422.16 338.56C422.16 335.558 420.947 333.273 418.47 331.922L417.513 333.678C419.26 334.631 420.16 336.186 420.16 338.56H422.16ZM418.47 331.922C416.16 330.662 412.554 329.916 407.787 329.594L407.652 331.59C412.357 331.908 415.599 332.634 417.513 333.678L418.47 331.922ZM407.789 329.594C402.385 329.217 398.374 327.967 395.642 325.948L394.453 327.556C397.609 329.889 402.046 331.199 407.65 331.59L407.789 329.594ZM395.642 325.948C392.99 323.988 391.632 321.14 391.632 317.248H389.632C389.632 321.676 391.217 325.164 394.453 327.556L395.642 325.948ZM391.632 317.248V316.672H389.632V317.248H391.632ZM391.632 316.672C391.632 314.578 392.079 312.804 392.938 311.316L391.205 310.316C390.144 312.156 389.632 314.286 389.632 316.672H391.632ZM392.946 311.302C393.834 309.702 395.016 308.373 396.496 307.308L395.327 305.684C393.607 306.923 392.229 308.474 391.197 310.33L392.946 311.302ZM396.481 307.318C398.049 306.232 399.803 305.414 401.75 304.867L401.209 302.941C399.06 303.546 397.102 304.456 395.342 305.674L396.481 307.318ZM401.75 304.867C403.706 304.317 405.758 304.04 407.911 304.04V302.04C405.585 302.04 403.349 302.339 401.209 302.941L401.75 304.867ZM407.911 304.04C410.954 304.04 413.582 304.475 415.814 305.319L416.521 303.449C414.017 302.501 411.141 302.04 407.911 302.04V304.04ZM415.836 305.327C418.104 306.124 419.971 307.185 421.459 308.495L422.78 306.993C421.068 305.487 418.967 304.308 416.499 303.441L415.836 305.327ZM421.476 308.51C422.971 309.765 424.094 311.218 424.86 312.869L426.675 312.027C425.777 310.094 424.468 308.411 422.763 306.978L421.476 308.51ZM424.873 312.895C425.726 314.601 426.266 316.291 426.506 317.965L428.485 317.683C428.213 315.773 427.601 313.879 426.662 312.001L424.873 312.895ZM427.259 316.852L420.155 318.58L420.628 320.524L427.732 318.796L427.259 316.852ZM421.386 319.448C421.042 316.142 419.68 313.484 417.269 311.569L416.026 313.135C417.967 314.676 419.101 316.818 419.397 319.656L421.386 319.448ZM417.281 311.578C414.947 309.668 411.919 308.76 408.296 308.76V310.76C411.584 310.76 414.124 311.58 416.014 313.126L417.281 311.578ZM408.296 308.76C406.871 308.76 405.478 308.93 404.117 309.27L404.602 311.21C405.801 310.91 407.032 310.76 408.296 310.76V308.76ZM404.153 309.261C402.841 309.538 401.646 309.991 400.581 310.631L401.61 312.345C402.465 311.833 403.446 311.454 404.566 311.219L404.153 309.261ZM400.581 310.631C399.496 311.281 398.614 312.123 397.95 313.155L399.633 314.237C400.121 313.477 400.775 312.847 401.61 312.345L400.581 310.631ZM397.969 313.127C397.262 314.148 396.928 315.346 396.928 316.672H398.928C398.928 315.694 399.169 314.908 399.614 314.265L397.969 313.127ZM459.589 321.952L459.054 322.797L459.06 322.801L459.066 322.805L459.589 321.952ZM470.341 324.352L470.421 323.355L470.415 323.355L470.341 324.352ZM483.013 328.384L482.399 329.173L482.408 329.181L482.418 329.188L483.013 328.384ZM485.989 344.8L485.1 344.341L485.094 344.353L485.989 344.8ZM482.149 349.408L481.539 348.615L481.531 348.621L481.524 348.627L482.149 349.408ZM476.197 352.288L475.936 351.323L475.92 351.327L475.905 351.332L476.197 352.288ZM459.013 351.904L458.649 352.836L458.663 352.841L458.676 352.846L459.013 351.904ZM452.389 347.968L451.695 348.688L451.709 348.701L451.723 348.714L452.389 347.968ZM448.453 342.4L447.532 342.791L447.537 342.801L448.453 342.4ZM446.917 336.064L446.68 335.092L445.868 335.29L445.919 336.124L446.917 336.064ZM454.021 334.336L455.017 334.249L454.915 333.089L453.784 333.364L454.021 334.336ZM458.245 343.168L457.577 343.912L457.582 343.917L457.588 343.922L458.245 343.168ZM476.677 344.416L477.214 345.26L477.22 345.256L476.677 344.416ZM476.773 332.8L476.294 333.678L476.294 333.678L476.773 332.8ZM466.501 330.592L466.431 331.59L466.433 331.59L466.501 330.592ZM453.829 326.752L453.234 327.556L453.234 327.556L453.829 326.752ZM450.853 310.816L451.719 311.316L451.723 311.309L451.727 311.302L450.853 310.816ZM454.693 306.496L454.124 305.674L454.116 305.679L454.108 305.684L454.693 306.496ZM460.261 303.904L459.99 302.941L459.99 302.941L460.261 303.904ZM474.949 304.384L474.595 305.319L474.606 305.324L474.617 305.327L474.949 304.384ZM480.901 307.744L480.24 308.495L480.249 308.502L480.258 308.51L480.901 307.744ZM484.549 312.448L483.642 312.869L483.648 312.882L483.654 312.895L484.549 312.448ZM486.277 317.824L486.513 318.796L487.395 318.581L487.267 317.683L486.277 317.824ZM479.173 319.552L478.178 319.656L478.297 320.794L479.409 320.524L479.173 319.552ZM475.429 312.352L474.796 313.126L474.801 313.131L474.807 313.135L475.429 312.352ZM463.141 310.24L463.347 311.219L463.365 311.215L463.383 311.21L463.141 310.24ZM457.573 313.696L458.395 314.265L458.405 314.251L458.414 314.237L457.573 313.696ZM455.709 316.672C455.709 319.313 456.839 321.394 459.054 322.797L460.124 321.107C458.498 320.078 457.709 318.639 457.709 316.672H455.709ZM459.066 322.805C461.273 324.157 465.074 324.965 470.267 325.349L470.415 323.355C465.239 322.971 461.872 322.179 460.111 321.099L459.066 322.805ZM470.261 325.349C475.73 325.789 479.734 327.101 482.399 329.173L483.627 327.595C480.531 325.187 476.087 323.811 470.421 323.355L470.261 325.349ZM482.418 329.188C485.066 331.145 486.429 334.022 486.429 337.984H488.429C488.429 333.498 486.848 329.975 483.607 327.58L482.418 329.188ZM486.429 337.984V338.56H488.429V337.984H486.429ZM486.429 338.56C486.429 340.721 485.98 342.641 485.101 344.341L486.877 345.259C487.918 343.247 488.429 341.007 488.429 338.56H486.429ZM485.094 344.353C484.269 346.003 483.089 347.423 481.539 348.615L482.758 350.201C484.536 348.833 485.916 347.181 486.883 345.247L485.094 344.353ZM481.524 348.627C480.05 349.806 478.197 350.712 475.936 351.323L476.458 353.253C478.933 352.584 481.047 351.57 482.773 350.189L481.524 348.627ZM475.905 351.332C473.708 352.003 471.28 352.344 468.613 352.344V354.344C471.45 354.344 474.078 353.981 476.489 353.244L475.905 351.332ZM468.613 352.344C464.983 352.344 461.902 351.874 459.349 350.962L458.676 352.846C461.499 353.854 464.819 354.344 468.613 354.344V352.344ZM459.376 350.972C456.845 349.984 454.744 348.73 453.055 347.222L451.723 348.714C453.618 350.406 455.933 351.776 458.649 352.836L459.376 350.972ZM453.082 347.248C451.442 345.668 450.209 343.919 449.369 341.999L447.537 342.801C448.489 344.977 449.88 346.94 451.695 348.688L453.082 347.248ZM449.373 342.009C448.518 339.993 448.035 337.993 447.915 336.004L445.919 336.124C446.054 338.359 446.595 340.583 447.532 342.791L449.373 342.009ZM447.153 337.036L454.257 335.308L453.784 333.364L446.68 335.092L447.153 337.036ZM453.025 334.423C453.365 338.299 454.874 341.487 457.577 343.912L458.913 342.424C456.624 340.369 455.317 337.669 455.017 334.249L453.025 334.423ZM457.588 343.922C460.309 346.294 463.891 347.432 468.229 347.432V345.432C464.246 345.432 461.173 344.394 458.902 342.414L457.588 343.922ZM468.229 347.432C471.865 347.432 474.889 346.739 477.214 345.26L476.14 343.572C474.241 344.781 471.632 345.432 468.229 345.432V347.432ZM477.22 345.256C479.668 343.672 480.941 341.411 480.941 338.56H478.941C478.941 340.701 478.038 342.344 476.134 343.576L477.22 345.256ZM480.941 338.56C480.941 335.558 479.728 333.273 477.252 331.922L476.294 333.678C478.041 334.631 478.941 336.186 478.941 338.56H480.941ZM477.252 331.922C474.941 330.662 471.335 329.916 466.568 329.594L466.433 331.59C471.139 331.908 474.381 332.634 476.294 333.678L477.252 331.922ZM466.57 329.594C461.166 329.217 457.155 327.967 454.423 325.948L453.234 327.556C456.39 329.889 460.827 331.199 466.431 331.59L466.57 329.594ZM454.423 325.948C451.772 323.988 450.413 321.14 450.413 317.248H448.413C448.413 321.676 449.998 325.164 453.234 327.556L454.423 325.948ZM450.413 317.248V316.672H448.413V317.248H450.413ZM450.413 316.672C450.413 314.578 450.86 312.804 451.719 311.316L449.987 310.316C448.925 312.156 448.413 314.286 448.413 316.672H450.413ZM451.727 311.302C452.616 309.702 453.797 308.373 455.277 307.308L454.108 305.684C452.389 306.923 451.01 308.474 449.979 310.33L451.727 311.302ZM455.262 307.318C456.83 306.232 458.585 305.414 460.531 304.867L459.99 302.941C457.841 303.546 455.883 304.456 454.124 305.674L455.262 307.318ZM460.531 304.867C462.487 304.317 464.539 304.04 466.693 304.04V302.04C464.366 302.04 462.131 302.339 459.99 302.941L460.531 304.867ZM466.693 304.04C469.736 304.04 472.363 304.475 474.595 305.319L475.303 303.449C472.798 302.501 469.922 302.04 466.693 302.04V304.04ZM474.617 305.327C476.885 306.124 478.752 307.185 480.24 308.495L481.561 306.993C479.85 305.487 477.748 304.308 475.28 303.441L474.617 305.327ZM480.258 308.51C481.752 309.765 482.875 311.218 483.642 312.869L485.456 312.027C484.559 310.094 483.249 308.411 481.544 306.978L480.258 308.51ZM483.654 312.895C484.507 314.601 485.048 316.291 485.287 317.965L487.267 317.683C486.994 315.773 486.382 313.879 485.443 312.001L483.654 312.895ZM486.04 316.852L478.936 318.58L479.409 320.524L486.513 318.796L486.04 316.852ZM480.167 319.448C479.823 316.142 478.462 313.484 476.051 311.569L474.807 313.135C476.748 314.676 477.883 316.818 478.178 319.656L480.167 319.448ZM476.062 311.578C473.728 309.668 470.701 308.76 467.077 308.76V310.76C470.365 310.76 472.905 311.58 474.796 313.126L476.062 311.578ZM467.077 308.76C465.653 308.76 464.259 308.93 462.898 309.27L463.383 311.21C464.582 310.91 465.813 310.76 467.077 310.76V308.76ZM462.935 309.261C461.622 309.538 460.428 309.991 459.362 310.631L460.391 312.345C461.246 311.833 462.228 311.454 463.347 311.219L462.935 309.261ZM459.362 310.631C458.277 311.281 457.395 312.123 456.732 313.155L458.414 314.237C458.903 313.477 459.556 312.847 460.391 312.345L459.362 310.631ZM456.751 313.127C456.043 314.148 455.709 315.346 455.709 316.672H457.709C457.709 315.694 457.95 314.908 458.395 314.265L456.751 313.127Z" fill="url(#paint2_linear_1_4)" mask="url(#path-2-outside-1_1_4)"/>
<path d="M40 187L73.4445 216.535C76.1359 218.912 76.1511 223.105 73.477 225.501L40 255.5" stroke="url(#paint3_linear_1_4)" stroke-width="13" stroke-linecap="round"/>
<path d="M135.5 255.5H94" stroke="url(#paint4_linear_1_4)" stroke-width="13" stroke-linecap="round"/>
<defs>
<linearGradient id="paint0_linear_1_4" x1="210" y1="223.5" x2="333" y2="225.5" gradientUnits="userSpaceOnUse">
<stop stop-color="#34D399"/>
<stop offset="0.466346" stop-color="#32CFA3" stop-opacity="0.87"/>
<stop offset="1" stop-color="#14B8A6"/>
</linearGradient>
<linearGradient id="paint1_linear_1_4" x1="27" y1="342.845" x2="495.902" y2="371.912" gradientUnits="userSpaceOnUse">
<stop stop-color="#34D399"/>
<stop offset="0.466346" stop-color="#32CFA3" stop-opacity="0.87"/>
<stop offset="1" stop-color="#14B8A6"/>
</linearGradient>
<linearGradient id="paint2_linear_1_4" x1="27" y1="342.845" x2="495.902" y2="371.912" gradientUnits="userSpaceOnUse">
<stop stop-color="#34D399"/>
<stop offset="0.466346" stop-color="#32CFA3" stop-opacity="0.87"/>
<stop offset="1" stop-color="#14B8A6"/>
</linearGradient>
<linearGradient id="paint3_linear_1_4" x1="40" y1="234.2" x2="78.4715" y2="234.604" gradientUnits="userSpaceOnUse">
<stop stop-color="#34D399"/>
<stop offset="0.466346" stop-color="#32CFA3" stop-opacity="0.87"/>
<stop offset="1" stop-color="#14B8A6"/>
</linearGradient>
<linearGradient id="paint4_linear_1_4" x1="94" y1="256.189" x2="119.896" y2="276.274" gradientUnits="userSpaceOnUse">
<stop stop-color="#34D399"/>
<stop offset="0.466346" stop-color="#32CFA3" stop-opacity="0.87"/>
<stop offset="1" stop-color="#14B8A6"/>
</linearGradient>
</defs>
</svg>
